 http://img832.imageshack.us/img832/4940/cars2c.jpg


Verenigde Staten
Animatie / Komedie
112 minuten

geregisseerd door John Lasseter en Brad Lewis
met de stemmen van Owen Wilson, Larry The Cable Guy en Bonnie Hunt

De grote ster uit het racecircuit Lightning McQueen en zijn trouwe mecanicien en vriend Mater reizen naar Japan en Europa voor hun eerste grote Grand Prix. Maar alsof de snelste auto ter wereld worden nog niet moeilijk genoeg is, raakt Mater betrokken bij een internationaal spionagecomplot. Nu moet hij zijn tijd verdelen tussen een geheime spionage-missie en het assisteren van Lightning op het circuit.


Vertaald door Simply ReleaseS Toppers
Heksje, Biteme en Suurtje




Screenshots:
 
http://img35.imageshack.us/img35/9965/screenshot1vj.jpg
 
http://img841.imageshack.us/img841/5424/screenshot2uw.jpg
 
http://img13.imageshack.us/img13/5938/screenshot3ck.jpg
 
http://img265.imageshack.us/img265/7291/screenshot4xs.jpg




INFO;



Video
ID                                       : 0
Format                                   : MPEG-4 Visual
Format profile                           : Advanced Simple@L5
Format settings, BVOP                    : 1
Format settings, QPel                    : No
Format settings, GMC                     : No warppoints
Format settings, Matrix                  : Custom
Codec ID                                 : XVID
Codec ID/Hint                            : XviD
Duration                                 : 1h 47mn
Bit rate                                 : 786 Kbps
Width                                    : 560 pixels
Height                                   : 240 pixels
Display aspect ratio                     : 2.35:1
Frame rate                               : 23.976 fps
Color space                              : YUV
Chroma subsampling                       : 4:2:0
Bit depth                                : 8 bits
Scan type                                : Progressive
Compression mode                         : Lossy
Bits/(Pixel*Frame)                       : 0.244
Stream size                              : 602 MiB (86%)
Writing library                          : XviD 64

Audio
ID                                       : 1
Format                                   : MPEG Audio
Format version                           : Version 1
Format profile                           : Layer 3
Mode                                     : Joint stereo
Codec ID                                 : 55
Codec ID/Hint                            : MP3
Duration                                 : 1h 47mn
Bit rate mode                            : Variable
Bit rate                                 : 116 Kbps
Nominal bit rate                         : 128 Kbps
Channel(s)                               : 2 channels
Sampling rate                            : 48.0 KHz
Compression mode                         : Lossy
Stream size                              : 89.1 MiB (13%)
Alignment                                : Aligned on interleaves
Interleave, duration                     : 24 ms (0.58 video frame)
Interleave, preload duration             : 446 ms
Writing library                          : LAME3.98r



 
http://www.imdb.com/title/tt1216475/ 
http://www.moviemeter.nl/film/71924


Deze film wordt u aangeboden door het DutchReleaseTeam.
Voor de reviews van de nieuwste films, muziek, series, games etc
ga dan eens naar http://www.hetmultimediacafe.be

DutchReleaseteam = Hardcoded Dutch Subs